PathFileType	4	(x/y/z)	S06_P20_T34
DataRate	CameraRate	NumFrames	NumMarkers	Units	OrigDataRate	OrigDataStartFrame	OrigNumFrames
240	240	7	51	mm	240	89	354
Frame#	Time	Sternum			R.Acromium			L.Acromium			Top.Head			R.ASIS			L.ASIS			R.PSIS			L.PSIS			R.Great.Tro			L.Great.Tro			R.Iliac.Crest			L.Iliac.Crest			V.Sacral			R.Thigh.Upper.Post			R.Thigh.Lower.Ant			R.Thigh.Lower.Post			R.Thigh.Upper.Ant			R.Knee.Lat			R.Knee.Med			R.Shank.Upper.Post			R.Shank.Lower.Ant			R.Shank.Lower.Post			R.Shank.Upper.Ant			R.Ankle.Lat			R.Ankle.Med			R.Heel.Upper			R.Heel.Med			R.Heel.Lat			R.Toe.Lat			R.Toe.Med			R.Toe.Tip			L.Thigh.Upper.Post			L.Thigh.Lower.Ant			L.Thigh.Lower.Post			L.Thigh.Upper.Ant			L.Knee.Lat			L.Knee.Med			L.Shank.Upper.Post			L.Shank.Lower.Ant			L.Shank.Lower.Post			L.Shank.Upper.Ant			L.Ankle.Lat			L.Ankle.Med			L.Heel.Upper			L.Heel.Med			L.Heel.Lat			L.Toe.Lat			L.Toe.Med			L.Toe.Tip			Cervical.Spine			Back			
		X1	Y1	Z1	X2	Y2	Z2	X3	Y3	Z3	X4	Y4	Z4	X5	Y5	Z5	X6	Y6	Z6	X7	Y7	Z7	X8	Y8	Z8	X9	Y9	Z9	X10	Y10	Z10	X11	Y11	Z11	X12	Y12	Z12	X13	Y13	Z13	X14	Y14	Z14	X15	Y15	Z15	X16	Y16	Z16	X17	Y17	Z17	X18	Y18	Z18	X19	Y19	Z19	X20	Y20	Z20	X21	Y21	Z21	X22	Y22	Z22	X23	Y23	Z23	X24	Y24	Z24	X25	Y25	Z25	X26	Y26	Z26	X27	Y27	Z27	X28	Y28	Z28	X29	Y29	Z29	X30	Y30	Z30	X31	Y31	Z31	X32	Y32	Z32	X33	Y33	Z33	X34	Y34	Z34	X35	Y35	Z35	X36	Y36	Z36	X37	Y37	Z37	X38	Y38	Z38	X39	Y39	Z39	X40	Y40	Z40	X41	Y41	Z41	X42	Y42	Z42	X43	Y43	Z43	X44	Y44	Z44	X45	Y45	Z45	X46	Y46	Z46	X47	Y47	Z47	X48	Y48	Z48	X49	Y49	Z49	X50	Y50	Z50	X51	Y51	Z51	

89	0.36667	-843.27	1285.2	330.74	-958.6	1498	499.88	-969.41	1499.7	148.73	-925.28	1814.8	322.52	-910.61	1054.9	454.23	-906.65	1044.6	202.16	-1111.5	1081.7	362.01	-1110.8	1087.1	282.39	-960.68	989.08	508.42	-1011.9	985.05	148.95	-994.06	1133.6	485.72	-972.44	1123.9	167.06	-1124	1050.3	325.46	-871.59	754.56	495.27	-791.77	698.79	455.88	-851.53	668.45	475.62	-808.55	788.15	468.29	-793.81	572.28	461.03	-797.65	575.13	333.46	-818.23	345.3	464.06	-752.84	286.41	445.44	-816.34	268.31	450.66	-756.84	361.99	457.16	-769.72	134.31	428.26	-751.34	142.38	341.11	-827.12	82.144	376.1	-808.9	54.54	347.04	-813.39	53.084	411.28	-645.87	81.639	462.04	-612.9	95.477	343.71	-555.25	123.18	392.25	-985.73	717.42	174.73	-946.06	633.35	235.52	-1013.7	633.5	194.44	-919.88	721.93	209.91	-1046.7	539.98	215.18	-1015.5	545.08	333.9	-1147.6	328.51	233.68	-1098.5	254.04	235.64	-1169.5	260.83	252.68	-1081.5	321.01	221.91	-1160.5	113.42	256.4	-1149.8	117.14	346.21	-1241.8	79.702	301.79	-1238.5	50.961	332.58	-1236.8	55.774	270.9	-1059.6	44.378	230.51	-1038.3	41.236	349.81	-964.53	46.975	295.57	-1018.6	1551.3	325.29	-1088.1	1284.4	323.93
90	0.37083	-837.81	1284.7	330.75	-953.4	1497.4	499.91	-963.99	1499.2	148.73	-920.15	1814.3	322.65	-905.04	1054.4	454.35	-901.21	1043.8	202.26	-1107.9	1081.4	362.12	-1105	1086.4	282.66	-955.28	988.39	508.52	-1006.7	984.34	149.22	-988.45	1133.1	485.84	-966.91	1123.1	167.14	-1118.3	1049.6	325.74	-867.95	753.2	495.6	-788.37	696.92	456.02	-848.33	666.99	475.74	-804.59	786.32	468.59	-790.59	570.83	460.91	-794.69	573.6	333.24	-810.33	343.32	463.4	-743.5	285.87	444.96	-806.65	266.38	449.87	-749.26	361.38	456.85	-756.49	133	427.37	-738.12	142.06	340.34	-812.67	79.639	375.11	-793.74	52.67	345.84	-798.12	50.658	410.07	-630.71	83.177	460.92	-598.81	98.571	342.52	-541.67	127.42	391.12	-981.73	716.94	175.03	-942.6	632.63	235.68	-1010.3	633.13	194.71	-915.98	721.03	209.98	-1043.8	539.73	215.4	-1012.5	544.67	334.16	-1145.9	328.81	233.92	-1097.3	254.06	235.87	-1168.2	261.24	252.93	-1080	320.93	222.14	-1160.1	113.79	256.66	-1149.4	117.38	346.47	-1241.8	80.243	302.05	-1238.3	51.355	332.82	-1236.7	56.242	271.14	-1059.5	44.439	230.61	-1038.2	41.104	349.93	-964.43	46.672	295.65	-1013.3	1550.8	325.31	-1082.5	1283.6	323.87
91	0.375	-832.34	1284.1	330.77	-948.19	1496.7	499.95	-958.57	1498.6	148.74	-915.03	1813.7	322.78	-899.47	1053.8	454.49	-895.74	1043	202.37	-1104.6	1081.1	362.24	-1099.2	1085.7	282.95	-949.88	987.67	508.63	-1001.4	983.61	149.5	-982.81	1132.5	485.97	-961.37	1122.3	167.23	-1112.6	1048.9	326.03	-864.35	751.83	495.96	-784.97	695.04	456.18	-845.12	665.51	475.86	-800.63	784.46	468.94	-787.37	569.38	460.77	-791.71	572.09	333	-802.63	341.43	462.75	-734.45	285.39	444.47	-797.25	264.58	449.09	-741.89	360.8	456.55	-743.69	131.85	426.5	-725.37	141.9	339.59	-798.68	77.374	374.15	-779.08	51.037	344.65	-783.33	48.477	408.87	-616.07	84.767	459.79	-585.28	101.7	341.35	-528.63	131.63	390	-977.67	716.44	175.3	-939.06	631.9	235.81	-1006.8	632.76	194.97	-912.01	720.13	210.03	-1040.9	539.48	215.61	-1009.5	544.25	334.4	-1144.2	329.13	234.13	-1096.1	254.08	236.08	-1167	261.67	253.16	-1078.4	320.85	222.35	-1159.8	114.19	256.9	-1149	117.65	346.71	-1241.7	80.845	302.29	-1238.2	51.81	333.04	-1236.6	56.757	271.35	-1059.5	44.496	230.71	-1038.1	40.986	350.05	-964.32	46.381	295.71	-1008	1550.2	325.34	-1076.9	1282.9	323.82
92	0.37917	-826.86	1283.5	330.79	-942.96	1496	500	-953.16	1498	148.75	-909.89	1813.1	322.91	-893.9	1053.2	454.64	-890.26	1042.1	202.49	-1101.8	1080.8	362.34	-1093.4	1084.9	283.26	-944.46	986.93	508.75	-996.07	982.87	149.79	-977.15	1132	486.12	-955.82	1121.5	167.34	-1106.9	1048.2	326.34	-860.77	750.45	496.34	-781.53	693.18	456.35	-841.89	664.03	475.97	-796.68	782.61	469.33	-784.13	567.94	460.62	-788.68	570.61	332.73	-795.12	339.64	462.09	-725.68	284.96	443.99	-788.12	262.91	448.33	-734.72	360.25	456.23	-731.35	130.85	425.65	-713.13	141.85	338.85	-785.2	75.335	373.21	-764.98	49.62	343.48	-769.08	46.524	407.7	-601.97	86.37	458.65	-572.35	104.81	340.19	-516.17	135.76	388.9	-973.54	715.95	175.56	-935.42	631.18	235.91	-1003.3	632.38	195.21	-907.96	719.23	210.04	-1037.9	539.21	215.79	-1006.3	543.81	334.62	-1142.5	329.47	234.31	-1094.8	254.12	236.26	-1165.6	262.13	253.37	-1076.7	320.77	222.54	-1159.4	114.61	257.11	-1148.5	117.97	346.93	-1241.6	81.512	302.5	-1238	52.332	333.24	-1236.4	57.323	271.55	-1059.4	44.549	230.8	-1038	40.882	350.16	-964.2	46.1	295.78	-1002.7	1549.5	325.39	-1071.3	1282.1	323.8
93	0.38333	-821.37	1282.9	330.81	-937.72	1495.3	500.07	-947.74	1497.4	148.78	-904.76	1812.5	323.05	-888.32	1052.6	454.8	-884.75	1041.3	202.62	-1099.5	1080.6	362.43	-1087.5	1084.1	283.59	-939.03	986.18	508.87	-990.72	982.12	150.09	-971.48	1131.4	486.28	-950.26	1120.7	167.46	-1101.2	1047.5	326.66	-857.21	749.07	496.73	-778.05	691.35	456.53	-838.62	662.56	476.07	-792.7	780.76	469.75	-780.85	566.52	460.45	-785.58	569.17	332.43	-787.82	337.96	461.45	-717.22	284.56	443.49	-779.29	261.37	447.58	-727.75	359.72	455.9	-719.5	129.98	424.83	-701.4	141.9	338.11	-772.26	73.507	372.28	-751.46	48.399	342.34	-755.41	44.786	406.54	-588.46	87.95	457.48	-560.01	107.86	339.04	-504.29	139.77	387.81	-969.35	715.45	175.79	-931.67	630.45	235.99	-999.62	632	195.43	-903.83	718.34	210.02	-1034.7	538.94	215.96	-1003	543.37	334.82	-1140.6	329.85	234.45	-1093.5	254.18	236.43	-1164.2	262.62	253.55	-1075	320.71	222.72	-1159	115.07	257.29	-1148.1	118.34	347.12	-1241.5	82.244	302.68	-1237.8	52.928	333.41	-1236.2	57.946	271.72	-1059.3	44.597	230.89	-1037.9	40.795	350.25	-964.08	45.83	295.83	-997.42	1548.9	325.44	-1065.7	1281.4	323.8
94	0.3875	-815.88	1282.3	330.84	-932.47	1494.6	500.14	-942.31	1496.8	148.82	-899.61	1811.9	323.19	-882.74	1051.9	454.98	-879.23	1040.4	202.75	NaN	NaN	NaN	-1081.7	1083.3	283.92	-933.58	985.42	509.01	-985.34	981.36	150.4	-965.8	1130.8	486.45	-944.7	1119.8	167.6	-1095.6	1046.8	327	-853.66	747.71	497.12	-774.51	689.56	456.71	-835.3	661.11	476.15	-788.69	778.95	470.19	-777.52	565.13	460.26	-782.38	567.8	332.11	-780.72	336.37	460.81	-709.05	284.19	442.98	-770.76	259.93	446.85	-720.97	359.21	455.55	-708.16	129.23	424.02	-690.21	142.02	337.38	-759.9	71.874	371.37	-738.57	47.347	341.21	-742.35	43.243	405.41	-575.58	89.468	456.29	-548.29	110.81	337.92	-493.01	143.59	386.74	-965.1	714.95	176.01	-927.83	629.72	236.04	-995.86	631.6	195.64	-899.62	717.46	209.98	-1031.4	538.66	216.1	-999.52	542.91	334.99	-1138.6	330.25	234.55	-1092.1	254.25	236.57	-1162.7	263.15	253.7	-1073.2	320.66	222.86	-1158.6	115.56	257.45	-1147.6	118.75	347.28	-1241.4	83.042	302.84	-1237.7	53.604	333.56	-1236.1	58.63	271.86	-1059.1	44.64	230.97	-1037.8	40.725	350.34	-963.96	45.571	295.88	-992.1	1548.3	325.51	-1060.2	1280.6	323.82
95	0.39167	-810.38	1281.6	330.88	-927.21	1493.9	500.23	-936.89	1496.1	148.86	-894.46	1811.2	323.34	-877.16	1051.3	455.18	-873.68	1039.6	202.89	NaN	NaN	NaN	-1075.8	1082.4	284.26	-928.12	984.65	509.16	-979.92	980.6	150.71	-960.11	1130.3	486.64	-939.13	1118.9	167.75	-1089.9	1046	327.36	-850.09	746.37	497.5	-770.89	687.83	456.9	-831.91	659.69	476.2	-784.63	777.17	470.65	-774.12	563.78	460.06	-779.06	566.49	331.76	-773.81	334.87	460.18	-701.19	283.83	442.45	-762.53	258.6	446.13	-714.38	358.7	455.17	-697.36	128.57	423.22	-679.58	142.17	336.65	-748.14	70.418	370.47	-726.34	46.442	340.11	-729.94	41.879	404.31	-563.38	90.891	455.05	-537.21	113.61	336.81	-482.34	147.2	385.7	-960.78	714.46	176.2	-923.88	629	236.05	-992	631.21	195.82	-895.32	716.59	209.91	-1028	538.38	216.22	-995.93	542.44	335.14	-1136.5	330.69	234.62	-1090.6	254.34	236.68	-1161.2	263.71	253.82	-1071.3	320.62	222.98	-1158.2	116.09	257.57	-1147.1	119.22	347.4	-1241.2	83.909	302.96	-1237.5	54.366	333.68	-1235.9	59.379	271.98	-1059	44.679	231.04	-1037.6	40.674	350.42	-963.84	45.323	295.93	-986.78	1547.6	325.59	-1054.6	1279.8	323.87
